<?xml version="1.0" encoding="UTF-8" standalone="no"?>
<svg
   xmlns:figma="http://www.figma.com/figma/ns"
   xmlns:dc="http://purl.org/dc/elements/1.1/"
   xmlns:cc="http://creativecommons.org/ns#"
   xmlns:rdf="http://www.w3.org/1999/02/22-rdf-syntax-ns#"
   xmlns:svg="http://www.w3.org/2000/svg"
   xmlns="http://www.w3.org/2000/svg"
   xmlns:sodipodi="http://sodipodi.sourceforge.net/DTD/sodipodi-0.dtd"
   xmlns:inkscape="http://www.inkscape.org/namespaces/inkscape"
   viewBox="0 0 109 24"
   version="1.1"
   id="svg867"
   sodipodi:docname="ionvarsesculogo.svg"
   inkscape:version="0.92.3 (2405546, 2018-03-11)">
  <metadata
     id="metadata871">
    <rdf:RDF>
      <cc:Work
         rdf:about="">
        <dc:format>image/svg+xml</dc:format>
        <dc:type
           rdf:resource="http://purl.org/dc/dcmitype/StillImage" />
        <dc:title>Logo</dc:title>
      </cc:Work>
    </rdf:RDF>
  </metadata>
  <sodipodi:namedview
     pagecolor="#ffffff"
     bordercolor="#666666"
     borderopacity="1"
     objecttolerance="10"
     gridtolerance="10"
     guidetolerance="10"
     inkscape:pageopacity="0"
     inkscape:pageshadow="2"
     inkscape:window-width="1920"
     inkscape:window-height="1001"
     id="namedview869"
     showgrid="false"
     inkscape:zoom="6.4449541"
     inkscape:cx="50.764044"
     inkscape:cy="15.086481"
     inkscape:window-x="-9"
     inkscape:window-y="-9"
     inkscape:window-maximized="1"
     inkscape:current-layer="text883" />
  <title
     id="title844">Logo</title>
  <g
     transform="translate(-1470)"
     figma:type="canvas"
     id="g858">
    <g
       aria-label="ION VARSESCU"
       transform="scale(0.70330301,1.4218623)"
       style="font-style:normal;font-variant:normal;font-weight:normal;font-stretch:normal;font-size:22.42923355px;line-height:1.25;font-family:'Berlin Sans FB Demi';-inkscape-font-specification:'Berlin Sans FB Demi';text-align:center;letter-spacing:0px;word-spacing:0px;text-anchor:middle;fill:#550000;fill-opacity:1;stroke:none;stroke-width:1.00000024"
       id="text883">
      <path
         d="m 2098.2822,8.3961237 q 0,1.2923093 0.066,3.8878793 0.066,2.595571 0.066,3.88788 0,0.219036 -0.099,0.273795 -0.022,0.01095 -0.2847,0.04381 -0.7119,0.08761 -1.9056,0.08761 -1.599,0 -2.037,-0.08761 -0.3176,-0.06571 -0.3176,-0.339505 0,0.175228 0.098,-1.927512 0.1972,-4.435469 0.1972,-5.8263443 0,-1.1718399 -0.077,-3.5155196 -0.077,-2.3436796 -0.077,-3.5155195 0,-0.240939 0.2519,-0.240939 0.3395,0 1.0185,0.032855 0.69,0.032855 1.0295,0.032855 0.3395,0 0.9966,-0.032855 0.6681,-0.032855 1.0076,-0.032855 0.3176,0 0.3176,0.240939 0,1.1718399 -0.1314,3.5155195 -0.1205,2.3436797 -0.1205,3.5155196 z"
         style="font-style:normal;font-variant:normal;font-weight:normal;font-stretch:normal;font-family:'Berlin Sans FB Demi';-inkscape-font-specification:'Berlin Sans FB Demi';fill:#550000;stroke-width:1.00000024"
         id="path820" />
      <path
         d="m 2115.7503,8.8232429 q 0,3.4169531 -2.1794,5.7277781 -2.2232,2.343679 -5.6293,2.343679 -3.384,0 -5.6182,-2.365583 -2.1904,-2.310824 -2.1904,-5.7058741 0,-3.4060018 2.1904,-5.727778 2.2342,-2.37653495 5.6182,-2.37653495 3.3622,0 5.6074,2.37653495 2.2013,2.3436797 2.2013,5.727778 z m -4.1508,-0.021904 q 0,-1.6427661 -0.9966,-2.7927024 -1.0404,-1.2046952 -2.6613,-1.2046952 -1.5442,0 -2.6174,1.2485023 -1.0404,1.2046951 -1.0404,2.7707989 0,1.6756211 0.9747,2.7927021 1.0294,1.17184 2.6831,1.17184 1.5443,0 2.6285,-1.23755 1.0294,-1.182792 1.0294,-2.7488957 z"
         style="font-style:normal;font-variant:normal;font-weight:normal;font-stretch:normal;font-family:'Berlin Sans FB Demi';-inkscape-font-specification:'Berlin Sans FB Demi';fill:#550000;stroke-width:1.00000024"
         id="path822" />
      <path
         d="m 2132.0575,1.4636506 q 0,1.2485022 -0.1096,3.7564585 -0.099,2.4970046 -0.099,3.7564586 v 7.2172193 q 0,0.295698 -0.3176,0.295698 -0.2629,0 -0.7995,0.0219 -0.5257,0.0219 -0.7885,0.0219 -0.2848,0 -0.8543,-0.04381 -0.5695,-0.04381 -0.8542,-0.04381 -0.1971,0 -0.4709,-0.361409 -0.7886,-1.062322 -3.5484,-4.709263 -0.7557,-1.018515 -2.2999,-3.0007859 -0.044,-0.065711 -0.1643,-0.1314213 -0.088,0.076662 -0.088,0.2409391 0,1.2704058 0.066,3.8112171 0.077,2.540812 0.077,3.811218 0,0.383312 -0.2957,0.383312 h -3.7893 q -0.3176,0 -0.3176,-0.339505 0,-1.182792 0.1095,-3.570279 0.1205,-2.387486 0.1205,-3.5812298 0,-1.259454 -0.1095,-3.7674103 -0.099,-2.5079563 -0.099,-3.7564585 0,-0.2409391 0.4271,-0.2409391 0.6352,0 1.5661,-0.087614 0.219,-0.021903 0.8652,-0.142373 0.5476,-0.098566 0.8652,-0.098566 0.1314,0 0.4052,0.37236029 l 4.085,5.5963566 q 0.5476,0.7556725 1.6537,2.2122584 0.2738,0.339505 0.471,0.339505 0.1423,0 0.1423,-0.8542384 0,-1.1499362 -0.1314,-3.4607606 -0.1205,-2.3108244 -0.1205,-3.4717124 0,-0.4052157 0.23,-0.4052157 0.6571,0 1.9823,-0.054759 1.3252,-0.054759 1.9823,-0.054759 0.2081,0 0.2081,0.339505 z"
         style="font-style:normal;font-variant:normal;font-weight:normal;font-stretch:normal;font-family:'Berlin Sans FB Demi';-inkscape-font-specification:'Berlin Sans FB Demi';fill:#550000;stroke-width:1.00000024"
         id="path824" />
      <path
         d="m 2145.8895,16.533292 q -1.4784,0 -1.6865,-0.04381 -0.2081,-0.04381 -0.3505,-0.317602 -1.2485,-2.464149 -2.5079,-4.93925 -1.9823,-3.9754939 -1.9823,-4.501179 0,-0.8651902 0.055,-2.5955705 0.066,-1.7413321 0.066,-2.6065223 0,-0.4052156 0.219,-0.4052156 0.6571,0 1.9932,0.054759 1.3361,0.054759 2.0042,0.054759 0.2738,0 0.2738,0.2299873 0,0.8870937 -0.1314,2.6722329 -0.1205,1.7741874 -0.1205,2.6612811 0,0.67901 2.2232,4.8516364 0.6024,-1.084226 1.369,-2.6612815 1.0294,-2.1246442 1.0294,-2.6065223 0,-0.7994795 -0.022,-2.3984385 -0.022,-1.6099109 -0.022,-2.4093904 0,-0.2956979 0.099,-0.3285532 0,0 0.3505,0 0.6023,0 1.818,-0.054759 1.2266,-0.065711 1.8289,-0.065711 0.3286,0 0.3286,0.2628426 0,0.8432866 -0.033,2.5517634 -0.022,1.697525 -0.022,2.5517633 0,0.67901 -2.1575,4.9940091 -0.8542,1.555152 -2.4642,4.687359 -0.1095,0.240939 -0.1533,0.273795 -0.033,0.0219 -0.2738,0.04381 -0.5585,0.04381 -1.7304,0.04381 z"
         style="font-style:normal;font-variant:normal;font-weight:normal;font-stretch:normal;font-family:'Berlin Sans FB Demi';-inkscape-font-specification:'Berlin Sans FB Demi';fill:#550000;stroke-width:1.00000024"
         id="path826" />
      <path
         d="m 2168.7788,16.21569 q 0,0.197132 -0.2738,0.273795 -0.3286,0.08761 -2.0371,0.08761 -1.5661,0 -2.0151,-0.08761 -0.3724,-0.07666 -0.4709,-0.49283 -0.3724,-1.577056 -0.5805,-1.686573 -0.1752,-0.07666 -2.935,-0.07666 -1.8618,0 -1.9823,0.09857 -0.1862,0.175229 -0.4162,1.17184 -0.2081,0.908997 -0.5038,0.98566 -0.3723,0.08761 -2.497,0.08761 -1.6756,0 -1.6756,-0.317601 0,-0.284747 2.4751,-6.9981842 2.6832,-7.2610263 2.9132,-7.9838434 0.1314,-0.41616739 0.3066,-0.41616739 0.2957,0 0.909,0.0547589 0.6243,0.0547589 0.9309,0.0547589 0.2957,0 0.8652,-0.0328553 0.5805,-0.0438071 0.8652,-0.0438071 0.2081,0 0.3833,0.36140857 0.5367,1.1499363 3.1322,7.8852774 2.6066,6.7791487 2.6066,7.0748457 z m -7.7649,-9.9770659 q -0.2299,0.4818781 -0.7775,2.0917889 -0.5914,1.708477 -0.5914,2.004175 0,0.197132 0.6571,0.219035 0.3395,0.0219 1.1171,0.0219 0.7228,0 0.7994,-0.175229 0.022,-0.05476 0.022,-0.153325 0,-0.3614081 -0.5037,-1.9932224 -0.4929,-1.5770555 -0.7229,-2.0151265 z"
         style="font-style:normal;font-variant:normal;font-weight:normal;font-stretch:normal;font-family:'Berlin Sans FB Demi';-inkscape-font-specification:'Berlin Sans FB Demi';fill:#550000;stroke-width:1.00000024"
         id="path828" />
      <path
         d="m 2182.9394,16.379967 q 0,0.07666 -0.219,0.109518 -0.4162,0.06571 -2.0918,0.06571 -1.4347,0 -1.9494,-0.06571 -0.241,-0.03286 -0.2738,-0.05476 -0.066,-0.03286 -0.1534,-0.219036 -0.1642,-0.427119 -0.4818,-1.270405 -0.4272,-1.095178 -1.3362,-3.230774 -0.1971,-0.427119 -0.909,-0.470926 0.3286,0.0219 -1.128,0.0219 -0.1643,0 -0.1643,0.558541 0,0.744721 0.1315,2.22321 0.1423,1.47849 0.1423,2.22321 0,0.18618 -0.099,0.219036 -0.1534,0.01095 -0.3067,0.0219 -0.6461,0.04381 -2.0151,0.04381 -1.5661,0 -1.8837,-0.06571 -0.3176,-0.06571 -0.3176,-0.339505 0,-1.204695 0.1095,-3.635989 0.1205,-2.431294 0.1205,-3.6469411 0,-4.6326004 -0.2081,-7.2281709 l -0.011,-0.1533249 q -0.011,-0.1861801 0.3395,-0.2518908 0.3614,-0.065711 3.3513,-0.1314213 2.0261,-0.043807 3.2308,-0.043807 2.497,0 4.074,1.1280328 1.7852,1.2704058 1.7852,3.6688443 0,1.5989591 -0.46,2.5517634 -0.46,0.9528044 -1.6975,1.8508496 -0.2519,0.175229 -0.2519,0.328553 0,-0.01095 1.3361,2.748896 1.3361,2.759847 1.3361,3.044593 z m -4.5997,-9.8237414 q 0,-1.3361165 -0.8762,-1.8508498 -0.679,-0.3942639 -2.1246,-0.3942639 -1.0405,0 -1.1062,0.3176014 -0.066,0.3723604 -0.066,2.1465478 0,0.2518908 0.011,0.7447206 0.011,0.4928299 0.011,0.7337689 0,0.054759 0.3505,0.1095177 0.668,0.098566 1.4018,0.098566 2.3985,0 2.3985,-1.9056087 z"
         style="font-style:normal;font-variant:normal;font-weight:normal;font-stretch:normal;font-family:'Berlin Sans FB Demi';-inkscape-font-specification:'Berlin Sans FB Demi';fill:#550000;stroke-width:1.00000024"
         id="path830" />
      <path
         d="m 2191.6351,11.451669 q 0,2.22321 -1.8727,3.811217 -1.6428,1.401827 -3.9974,1.785139 -0.088,0.01095 -0.1424,0.01095 -0.2519,0 -1.1171,-1.533248 -0.8652,-1.544201 -0.8652,-1.883706 0,-0.120469 0.1643,-0.153324 1.588,-0.361409 2.1027,-0.6133 1.139,-0.569492 1.139,-1.686573 0,-0.711865 -0.7447,-1.5880072 -1.2923,-1.4894413 -1.4018,-1.6537179 -0.7557,-1.1389845 -0.7557,-2.518908 0,-2.0041747 1.8508,-3.3293394 1.5114,-1.0951774 3.7127,-1.42373065 0.1205,-0.0109518 0.1862,-0.0109518 0.1642,0 0.2628,0.26284258 0.2848,0.79947954 1.3252,2.89126834 0.033,0.065711 0.033,0.1095178 0,0.1861801 -0.1971,0.1861801 -0.088,0 -0.2957,-0.032855 -0.2081,-0.032855 -0.3176,-0.032855 -0.7885,0 -1.3799,0.3614086 -0.7119,0.4161674 -0.7119,1.160888 0,0.6680582 0.7885,1.6427661 1.3909,1.7522839 1.4566,1.8398981 0.7776,1.2046949 0.7776,2.3984389 z"
         style="font-style:normal;font-variant:normal;font-weight:normal;font-stretch:normal;font-family:'Berlin Sans FB Demi';-inkscape-font-specification:'Berlin Sans FB Demi';fill:#550000;stroke-width:1.00000024"
         id="path832" />
      <path
         d="m 2204.6677,13.083483 q 0,0.470926 -0.1862,1.73038 -0.1971,1.368972 -0.3504,1.631815 -0.1314,0.208083 -0.3614,0.208083 -0.099,0 -0.3286,-0.03285 -0.7995,-0.109518 -4.6654,-0.109518 -0.8433,0 -2.508,-0.01095 -1.6647,-0.01095 -2.497,-0.01095 -0.3614,0 -0.3614,-0.317602 0,-1.226598 0.1314,-3.679796 0.1424,-2.464149 0.1424,-3.6907477 0,-1.2485023 -0.1314,-4.654504 -0.033,-0.876142 -0.1205,-2.6174741 l -0.011,-0.1533248 q -0.022,-0.2518908 0.2738,-0.2518908 0.8105,0 2.4313,0.043807 1.6319,0.043807 2.4423,0.043807 0.7995,0 2.4094,-0.043807 1.6099,-0.043807 2.4094,-0.043807 0.5695,0 0.6571,0.4271192 0.055,0.2518908 0.1642,1.5332484 0.1205,1.2704058 0.1205,1.5442001 0,0.2299873 -0.219,0.2299873 -0.066,0 -0.23,-0.010952 -2.9132,-0.240939 -5.235,-0.240939 -0.5804,0 -0.7118,0.2737943 -0.055,0.1314213 -0.055,0.8432867 0,0.7447206 0.2191,0.9856596 0.1861,0.2080837 0.7118,0.2080837 0.1095,0 0.4271,-0.010952 0.3176,-0.021904 0.5257,-0.021904 1.38,0 2.7927,-0.076662 0.1205,-0.010952 0.6024,-0.054759 0.3723,-0.043807 0.5914,-0.043807 0.2628,0 0.2628,0.2518908 0,-0.2299872 -0.1971,1.6756215 -0.088,0.8761419 -0.088,1.7522843 0,0.219035 -0.3176,0.219035 0,0 -0.9857,-0.109518 -0.6242,-0.06571 -2.8475,-0.06571 h -1.1608 q -0.4491,0 -0.5257,0.219035 -0.011,0.05476 -0.011,0.67901 0,0.832335 0.1095,1.073274 0.1862,0.416167 1.4019,0.49283 -0.022,0 1.5989,0 0.5805,0 1.7195,-0.09857 1.1499,-0.109518 1.7194,-0.109518 0.2409,0 0.2409,0.394264 z"
         style="font-style:normal;font-variant:normal;font-weight:normal;font-stretch:normal;font-family:'Berlin Sans FB Demi';-inkscape-font-specification:'Berlin Sans FB Demi';fill:#550000;stroke-width:1.00000024"
         id="path834" />
      <path
         d="m 2213.5825,11.451669 q 0,2.22321 -1.8728,3.811217 -1.6428,1.401827 -3.9974,1.785139 -0.088,0.01095 -0.1424,0.01095 -0.2519,0 -1.117,-1.533248 -0.8652,-1.544201 -0.8652,-1.883706 0,-0.120469 0.1642,-0.153324 1.5881,-0.361409 2.1028,-0.6133 1.139,-0.569492 1.139,-1.686573 0,-0.711865 -0.7448,-1.5880072 -1.2923,-1.4894413 -1.4018,-1.6537179 -0.7557,-1.1389845 -0.7557,-2.518908 0,-2.0041747 1.8509,-3.3293394 1.5113,-1.0951774 3.7127,-1.42373065 0.1204,-0.0109518 0.1861,-0.0109518 0.1643,0 0.2629,0.26284258 0.2847,0.79947954 1.3251,2.89126834 0.033,0.065711 0.033,0.1095178 0,0.1861801 -0.1971,0.1861801 -0.088,0 -0.2957,-0.032855 -0.2081,-0.032855 -0.3176,-0.032855 -0.7886,0 -1.38,0.3614086 -0.7118,0.4161674 -0.7118,1.160888 0,0.6680582 0.7885,1.6427661 1.3909,1.7522839 1.4566,1.8398981 0.7776,1.2046949 0.7776,2.3984389 z"
         style="font-style:normal;font-variant:normal;font-weight:normal;font-stretch:normal;font-family:'Berlin Sans FB Demi';-inkscape-font-specification:'Berlin Sans FB Demi';fill:#550000;stroke-width:1.00000024"
         id="path836" />
      <path
         d="m 2228.1921,14.014384 q 0,0.175228 -0.23,0.459974 -2.0151,2.398439 -5.3554,2.398439 -3.4169,0 -5.5416,-2.332728 -2.0699,-2.256066 -2.0699,-5.6949226 0,-3.3293394 2.0261,-5.6511155 2.1137,-2.43129386 5.3773,-2.43129386 3.5484,0 5.5635,2.17940306 0.2191,0.240939 0.2191,0.4271192 0,0.2080837 -0.7666,1.5442002 -0.7557,1.3361164 -0.9528,1.500393 -0.088,0.087614 -0.2191,0.087614 -0.055,0 -0.5476,-0.4380709 -0.5914,-0.5256852 -1.1609,-0.8213831 -0.8651,-0.438071 -1.796,-0.438071 -1.61,0 -2.5737,1.2046952 -0.8871,1.117081 -0.8871,2.7598471 0,1.66467 0.8871,2.792702 0.9637,1.226599 2.5737,1.226599 0.9528,0 1.807,-0.416167 0.5585,-0.273795 1.139,-0.766625 0.4819,-0.416167 0.5366,-0.416167 0.1095,0 0.2191,0.12047 0.1752,0.197132 0.9528,1.368971 0.7994,1.215647 0.7994,1.336117 z"
         style="font-style:normal;font-variant:normal;font-weight:normal;font-stretch:normal;font-family:'Berlin Sans FB Demi';-inkscape-font-specification:'Berlin Sans FB Demi';fill:#550000;stroke-width:1.00000024"
         id="path838" />
      <path
         d="m 2242.4513,11.112164 q 0,2.792702 -0.668,3.811217 -1.2266,1.861802 -6.1221,1.861802 -2.2122,0 -3.406,-0.339505 -1.9056,-0.547589 -2.4751,-2.091789 -0.2847,-0.755673 -0.2847,-2.694137 0,-0.449022 0.033,-1.336116 0.033,-0.8870938 0.033,-1.3251648 0,-1.2704058 -0.1205,-3.8112174 -0.1204,-2.5408116 -0.1204,-3.8002656 0,-0.2628426 0.2299,-0.2628426 0.6681,0 2.0152,0.054759 1.358,0.054759 2.0261,0.054759 0.2737,0 0.2737,0.2409391 0,1.4456342 -0.099,4.3369025 -0.088,2.8803167 -0.088,4.3259511 0,1.719428 0.3614,2.321776 0.4819,0.821383 2.0151,0.821383 2.2451,0 2.2451,-2.179403 0,-1.5880074 -0.077,-4.7640219 -0.077,-3.1760145 -0.077,-4.7640218 0,-0.339505 0.2738,-0.339505 0.6461,0 1.9494,-0.054759 1.3033,-0.054759 1.9494,-0.054759 0.3176,0 0.3176,0.2628426 0,1.259454 -0.1095,3.8002656 -0.099,2.5408116 -0.099,3.8112174 0,0.3504568 0.011,1.0623218 0.011,0.700914 0.011,1.051371 z"
         style="font-style:normal;font-variant:normal;font-weight:normal;font-stretch:normal;font-family:'Berlin Sans FB Demi';-inkscape-font-specification:'Berlin Sans FB Demi';fill:#550000;stroke-width:1.00000024"
         id="path840" />
    </g>
  </g>
  <defs
     id="defs865">
    <path
       id="b"
       d="M22.735 23.171c.283.323.053.829-.376.829h-5.907c-.285 0-.556-.121-.745-.333l-9.414-10.526v10.36c0 .276-.224.5-.5.5h-5.293c-.276 0-.5-.224-.5-.5v-23c0-.276.224-.5.5-.5h5.293c.276 0 .5.224.5.5v9.815l9.141-9.99c.19-.207.457-.325.738-.325h5.762c.437 0 .664.521.366.841l-9.851 10.563 10.287 11.767z" />
    <path
       id="c"
       d="M45.991 24c-.199 0-.38-.118-.459-.301l-2.024-4.669h-10.67l-2.024 4.669c-.079.183-.259.301-.459.301h-5.212c-.366 0-.608-.381-.453-.712l10.782-23c.082-.176.259-.288.453-.288h4.358c.194 0 .37.112.453.287l10.815 23c.156.332-.086.713-.452.713h-5.108zm-11.135-9.668h6.635l-3.317-7.694-3.317 7.694z" />
    <path
       id="d"
       d="M55.525 24c-.276 0-.5-.224-.5-.5v-23c0-.276.224-.5.5-.5h5.293c.276 0 .5.224.5.5v18.428h9.759c.276 0 .5.224.5.5v4.072c0 .276-.224.5-.5.5h-15.552z" />
    <path
       id="e"
       d="M75.279.5c0-.276.224-.5.5-.5h9.315c2.667 0 4.959.477 6.874 1.43 1.938.953 3.42 2.338 4.446 4.153 1.026 1.793 1.539 3.926 1.539 6.4 0 2.496-.513 4.652-1.539 6.468-1.003 1.793-2.474 3.166-4.412 4.119-1.915.953-4.218 1.43-6.908 1.43h-9.315c-.276 0-.5-.224-.5-.5v-23zm9.37 18.462c2.371 0 4.138-.579 5.301-1.736 1.163-1.157 1.744-2.905 1.744-5.242 0-2.338-.581-4.074-1.744-5.209-1.163-1.157-2.93-1.736-5.301-1.736h-3.078v13.923h3.078z" />
    <path
       id="f"
       d="M102.913 24c-.276 0-.5-.224-.5-.5v-23c0-.276.224-.5.5-.5h5.293c.276 0 .5.224.5.5v23c0 .276-.224.5-.5.5h-5.293z" />
  </defs>
</svg>
